# Blender 4.5.3 LTS
# www.blender.org
mtllib Tympole_Tail.mtl
o merged_0_0_node
v 0.000857 -0.027393 -0.285616
v 0.000857 -0.002852 -0.569667
v 0.082716 -0.002852 -0.486470
v -0.081002 -0.002852 -0.486470
v 0.123582 -0.002852 -0.285616
v -0.121868 -0.002852 -0.285616
v 0.082716 -0.002852 -0.084761
v -0.081002 -0.002852 -0.084761
v 0.000857 -0.002852 -0.001564
v 0.000857 0.020590 -0.285616
vn -0.0000 -1.0000 -0.0000
vn -0.0000 -0.0000 -1.0000
vn 0.8366 -0.0009 -0.5477
vn -0.8366 -0.0009 -0.5477
vn 1.0000 -0.0000 -0.0000
vn -1.0000 -0.0000 -0.0000
vn 0.8366 -0.0009 0.5477
vn -0.8366 -0.0009 0.5477
vn -0.0000 -0.0025 1.0000
vn -0.0000 1.0000 -0.0000
vt 0.677159 0.242124
vt 0.677159 0.019585
vt 0.465951 0.061262
vt 0.888367 0.061262
vt 0.360513 0.242124
vt 0.993805 0.242124
vt 0.465951 0.422986
vt 0.888367 0.422986
vt 0.677159 0.487514
s 1
usemtl mat_body_mat_id
f 1/1/1 2/2/2 3/3/3
f 1/1/1 4/4/4 2/2/2
f 1/1/1 3/3/3 5/5/5
f 1/1/1 6/6/6 4/4/4
f 1/1/1 5/5/5 7/7/7
f 1/1/1 8/8/8 6/6/6
f 1/1/1 7/7/7 9/9/9
f 1/1/1 9/9/9 8/8/8
f 2/2/2 10/1/10 3/3/3
f 2/2/2 4/4/4 10/1/10
f 10/1/10 7/7/7 5/5/5
f 10/1/10 4/4/4 6/6/6
f 10/1/10 8/8/8 9/9/9
f 10/1/10 5/5/5 3/3/3
f 10/1/10 9/9/9 7/7/7
f 10/1/10 6/6/6 8/8/8
